<?xml version="1.0" encoding="utf-8" standalone="no"?>
<!DOCTYPE svg PUBLIC "-//W3C//DTD SVG 1.1//EN"
  "http://www.w3.org/Graphics/SVG/1.1/DTD/svg11.dtd">
<svg height="288pt" version="1.1" viewBox="0 0 432 288" width="432pt" xmlns="http://www.w3.org/2000/svg" xmlns:xlink="http://www.w3.org/1999/xlink">
 <metadata>
  <rdf:RDF xmlns:cc="http://creativecommons.org/ns#" xmlns:dc="http://purl.org/dc/elements/1.1/" xmlns:rdf="http://www.w3.org/1999/02/22-rdf-syntax-ns#">
   <cc:Work>
    <dc:type rdf:resource="http://purl.org/dc/dcmitype/StillImage"/>
    <dc:date>2022-06-21T10:52:58.170830</dc:date>
    <dc:format>image/svg+xml</dc:format>
    <dc:creator>
     <cc:Agent>
      <dc:title>Matplotlib v3.4.3, https://matplotlib.org/</dc:title>
     </cc:Agent>
    </dc:creator>
   </cc:Work>
  </rdf:RDF>
 </metadata>
 <defs>
  <style type="text/css">*{stroke-linecap:butt;stroke-linejoin:round;}</style>
 </defs>
 <g id="figure_1">
  <g id="patch_1">
   <path d="M 0 288 
L 432 288 
L 432 0 
L 0 0 
z
" style="fill:none;"/>
  </g>
  <g id="axes_1">
   <g id="patch_2">
    <path d="M 63.175 233.2 
L 421.2 233.2 
L 421.2 10.8 
L 63.175 10.8 
z
" style="fill:#ffffff;"/>
   </g>
   <g id="matplotlib.axis_1">
    <g id="xtick_1">
     <g id="line2d_1">
      <defs>
       <path d="M 0 0 
L 0 3.5 
" id="m82db8a94df" style="stroke:#000000;stroke-width:0.8;"/>
      </defs>
      <g>
       <use style="stroke:#000000;stroke-width:0.8;" x="98.594586" xlink:href="#m82db8a94df" y="233.2"/>
      </g>
     </g>
     <g id="text_1">
      <!-- −7.5 -->
      <g transform="translate(86.453179 247.798438)scale(0.1 -0.1)">
       <defs>
        <path d="M 678 2272 
L 4684 2272 
L 4684 1741 
L 678 1741 
L 678 2272 
z
" id="DejaVuSans-2212" transform="scale(0.015625)"/>
        <path d="M 525 4666 
L 3525 4666 
L 3525 4397 
L 1831 0 
L 1172 0 
L 2766 4134 
L 525 4134 
L 525 4666 
z
" id="DejaVuSans-37" transform="scale(0.015625)"/>
        <path d="M 684 794 
L 1344 794 
L 1344 0 
L 684 0 
L 684 794 
z
" id="DejaVuSans-2e" transform="scale(0.015625)"/>
        <path d="M 691 4666 
L 3169 4666 
L 3169 4134 
L 1269 4134 
L 1269 2991 
Q 1406 3038 1543 3061 
Q 1681 3084 1819 3084 
Q 2600 3084 3056 2656 
Q 3513 2228 3513 1497 
Q 3513 744 3044 326 
Q 2575 -91 1722 -91 
Q 1428 -91 1123 -41 
Q 819 9 494 109 
L 494 744 
Q 775 591 1075 516 
Q 1375 441 1709 441 
Q 2250 441 2565 725 
Q 2881 1009 2881 1497 
Q 2881 1984 2565 2268 
Q 2250 2553 1709 2553 
Q 1456 2553 1204 2497 
Q 953 2441 691 2322 
L 691 4666 
z
" id="DejaVuSans-35" transform="scale(0.015625)"/>
       </defs>
       <use xlink:href="#DejaVuSans-2212"/>
       <use x="83.789062" xlink:href="#DejaVuSans-37"/>
       <use x="147.412109" xlink:href="#DejaVuSans-2e"/>
       <use x="179.199219" xlink:href="#DejaVuSans-35"/>
      </g>
     </g>
    </g>
    <g id="xtick_2">
     <g id="line2d_2">
      <g>
       <use style="stroke:#000000;stroke-width:0.8;" x="146.45889" xlink:href="#m82db8a94df" y="233.2"/>
      </g>
     </g>
     <g id="text_2">
      <!-- −5.0 -->
      <g transform="translate(134.317484 247.798438)scale(0.1 -0.1)">
       <defs>
        <path d="M 2034 4250 
Q 1547 4250 1301 3770 
Q 1056 3291 1056 2328 
Q 1056 1369 1301 889 
Q 1547 409 2034 409 
Q 2525 409 2770 889 
Q 3016 1369 3016 2328 
Q 3016 3291 2770 3770 
Q 2525 4250 2034 4250 
z
M 2034 4750 
Q 2819 4750 3233 4129 
Q 3647 3509 3647 2328 
Q 3647 1150 3233 529 
Q 2819 -91 2034 -91 
Q 1250 -91 836 529 
Q 422 1150 422 2328 
Q 422 3509 836 4129 
Q 1250 4750 2034 4750 
z
" id="DejaVuSans-30" transform="scale(0.015625)"/>
       </defs>
       <use xlink:href="#DejaVuSans-2212"/>
       <use x="83.789062" xlink:href="#DejaVuSans-35"/>
       <use x="147.412109" xlink:href="#DejaVuSans-2e"/>
       <use x="179.199219" xlink:href="#DejaVuSans-30"/>
      </g>
     </g>
    </g>
    <g id="xtick_3">
     <g id="line2d_3">
      <g>
       <use style="stroke:#000000;stroke-width:0.8;" x="194.323195" xlink:href="#m82db8a94df" y="233.2"/>
      </g>
     </g>
     <g id="text_3">
      <!-- −2.5 -->
      <g transform="translate(182.181789 247.798438)scale(0.1 -0.1)">
       <defs>
        <path d="M 1228 531 
L 3431 531 
L 3431 0 
L 469 0 
L 469 531 
Q 828 903 1448 1529 
Q 2069 2156 2228 2338 
Q 2531 2678 2651 2914 
Q 2772 3150 2772 3378 
Q 2772 3750 2511 3984 
Q 2250 4219 1831 4219 
Q 1534 4219 1204 4116 
Q 875 4013 500 3803 
L 500 4441 
Q 881 4594 1212 4672 
Q 1544 4750 1819 4750 
Q 2544 4750 2975 4387 
Q 3406 4025 3406 3419 
Q 3406 3131 3298 2873 
Q 3191 2616 2906 2266 
Q 2828 2175 2409 1742 
Q 1991 1309 1228 531 
z
" id="DejaVuSans-32" transform="scale(0.015625)"/>
       </defs>
       <use xlink:href="#DejaVuSans-2212"/>
       <use x="83.789062" xlink:href="#DejaVuSans-32"/>
       <use x="147.412109" xlink:href="#DejaVuSans-2e"/>
       <use x="179.199219" xlink:href="#DejaVuSans-35"/>
      </g>
     </g>
    </g>
    <g id="xtick_4">
     <g id="line2d_4">
      <g>
       <use style="stroke:#000000;stroke-width:0.8;" x="242.1875" xlink:href="#m82db8a94df" y="233.2"/>
      </g>
     </g>
     <g id="text_4">
      <!-- 0.0 -->
      <g transform="translate(234.235937 247.798438)scale(0.1 -0.1)">
       <use xlink:href="#DejaVuSans-30"/>
       <use x="63.623047" xlink:href="#DejaVuSans-2e"/>
       <use x="95.410156" xlink:href="#DejaVuSans-30"/>
      </g>
     </g>
    </g>
    <g id="xtick_5">
     <g id="line2d_5">
      <g>
       <use style="stroke:#000000;stroke-width:0.8;" x="290.051805" xlink:href="#m82db8a94df" y="233.2"/>
      </g>
     </g>
     <g id="text_5">
      <!-- 2.5 -->
      <g transform="translate(282.100242 247.798438)scale(0.1 -0.1)">
       <use xlink:href="#DejaVuSans-32"/>
       <use x="63.623047" xlink:href="#DejaVuSans-2e"/>
       <use x="95.410156" xlink:href="#DejaVuSans-35"/>
      </g>
     </g>
    </g>
    <g id="xtick_6">
     <g id="line2d_6">
      <g>
       <use style="stroke:#000000;stroke-width:0.8;" x="337.91611" xlink:href="#m82db8a94df" y="233.2"/>
      </g>
     </g>
     <g id="text_6">
      <!-- 5.0 -->
      <g transform="translate(329.964547 247.798438)scale(0.1 -0.1)">
       <use xlink:href="#DejaVuSans-35"/>
       <use x="63.623047" xlink:href="#DejaVuSans-2e"/>
       <use x="95.410156" xlink:href="#DejaVuSans-30"/>
      </g>
     </g>
    </g>
    <g id="xtick_7">
     <g id="line2d_7">
      <g>
       <use style="stroke:#000000;stroke-width:0.8;" x="385.780414" xlink:href="#m82db8a94df" y="233.2"/>
      </g>
     </g>
     <g id="text_7">
      <!-- 7.5 -->
      <g transform="translate(377.828852 247.798438)scale(0.1 -0.1)">
       <use xlink:href="#DejaVuSans-37"/>
       <use x="63.623047" xlink:href="#DejaVuSans-2e"/>
       <use x="95.410156" xlink:href="#DejaVuSans-35"/>
      </g>
     </g>
    </g>
    <g id="text_8">
     <!-- Trap Position ($\mu$m) -->
     <g transform="translate(149.8875 269.078125)scale(0.2 -0.2)">
      <defs>
       <path d="M -19 4666 
L 3928 4666 
L 3928 4134 
L 2272 4134 
L 2272 0 
L 1638 0 
L 1638 4134 
L -19 4134 
L -19 4666 
z
" id="DejaVuSans-54" transform="scale(0.015625)"/>
       <path d="M 2631 2963 
Q 2534 3019 2420 3045 
Q 2306 3072 2169 3072 
Q 1681 3072 1420 2755 
Q 1159 2438 1159 1844 
L 1159 0 
L 581 0 
L 581 3500 
L 1159 3500 
L 1159 2956 
Q 1341 3275 1631 3429 
Q 1922 3584 2338 3584 
Q 2397 3584 2469 3576 
Q 2541 3569 2628 3553 
L 2631 2963 
z
" id="DejaVuSans-72" transform="scale(0.015625)"/>
       <path d="M 2194 1759 
Q 1497 1759 1228 1600 
Q 959 1441 959 1056 
Q 959 750 1161 570 
Q 1363 391 1709 391 
Q 2188 391 2477 730 
Q 2766 1069 2766 1631 
L 2766 1759 
L 2194 1759 
z
M 3341 1997 
L 3341 0 
L 2766 0 
L 2766 531 
Q 2569 213 2275 61 
Q 1981 -91 1556 -91 
Q 1019 -91 701 211 
Q 384 513 384 1019 
Q 384 1609 779 1909 
Q 1175 2209 1959 2209 
L 2766 2209 
L 2766 2266 
Q 2766 2663 2505 2880 
Q 2244 3097 1772 3097 
Q 1472 3097 1187 3025 
Q 903 2953 641 2809 
L 641 3341 
Q 956 3463 1253 3523 
Q 1550 3584 1831 3584 
Q 2591 3584 2966 3190 
Q 3341 2797 3341 1997 
z
" id="DejaVuSans-61" transform="scale(0.015625)"/>
       <path d="M 1159 525 
L 1159 -1331 
L 581 -1331 
L 581 3500 
L 1159 3500 
L 1159 2969 
Q 1341 3281 1617 3432 
Q 1894 3584 2278 3584 
Q 2916 3584 3314 3078 
Q 3713 2572 3713 1747 
Q 3713 922 3314 415 
Q 2916 -91 2278 -91 
Q 1894 -91 1617 61 
Q 1341 213 1159 525 
z
M 3116 1747 
Q 3116 2381 2855 2742 
Q 2594 3103 2138 3103 
Q 1681 3103 1420 2742 
Q 1159 2381 1159 1747 
Q 1159 1113 1420 752 
Q 1681 391 2138 391 
Q 2594 391 2855 752 
Q 3116 1113 3116 1747 
z
" id="DejaVuSans-70" transform="scale(0.015625)"/>
       <path id="DejaVuSans-20" transform="scale(0.015625)"/>
       <path d="M 1259 4147 
L 1259 2394 
L 2053 2394 
Q 2494 2394 2734 2622 
Q 2975 2850 2975 3272 
Q 2975 3691 2734 3919 
Q 2494 4147 2053 4147 
L 1259 4147 
z
M 628 4666 
L 2053 4666 
Q 2838 4666 3239 4311 
Q 3641 3956 3641 3272 
Q 3641 2581 3239 2228 
Q 2838 1875 2053 1875 
L 1259 1875 
L 1259 0 
L 628 0 
L 628 4666 
z
" id="DejaVuSans-50" transform="scale(0.015625)"/>
       <path d="M 1959 3097 
Q 1497 3097 1228 2736 
Q 959 2375 959 1747 
Q 959 1119 1226 758 
Q 1494 397 1959 397 
Q 2419 397 2687 759 
Q 2956 1122 2956 1747 
Q 2956 2369 2687 2733 
Q 2419 3097 1959 3097 
z
M 1959 3584 
Q 2709 3584 3137 3096 
Q 3566 2609 3566 1747 
Q 3566 888 3137 398 
Q 2709 -91 1959 -91 
Q 1206 -91 779 398 
Q 353 888 353 1747 
Q 353 2609 779 3096 
Q 1206 3584 1959 3584 
z
" id="DejaVuSans-6f" transform="scale(0.015625)"/>
       <path d="M 2834 3397 
L 2834 2853 
Q 2591 2978 2328 3040 
Q 2066 3103 1784 3103 
Q 1356 3103 1142 2972 
Q 928 2841 928 2578 
Q 928 2378 1081 2264 
Q 1234 2150 1697 2047 
L 1894 2003 
Q 2506 1872 2764 1633 
Q 3022 1394 3022 966 
Q 3022 478 2636 193 
Q 2250 -91 1575 -91 
Q 1294 -91 989 -36 
Q 684 19 347 128 
L 347 722 
Q 666 556 975 473 
Q 1284 391 1588 391 
Q 1994 391 2212 530 
Q 2431 669 2431 922 
Q 2431 1156 2273 1281 
Q 2116 1406 1581 1522 
L 1381 1569 
Q 847 1681 609 1914 
Q 372 2147 372 2553 
Q 372 3047 722 3315 
Q 1072 3584 1716 3584 
Q 2034 3584 2315 3537 
Q 2597 3491 2834 3397 
z
" id="DejaVuSans-73" transform="scale(0.015625)"/>
       <path d="M 603 3500 
L 1178 3500 
L 1178 0 
L 603 0 
L 603 3500 
z
M 603 4863 
L 1178 4863 
L 1178 4134 
L 603 4134 
L 603 4863 
z
" id="DejaVuSans-69" transform="scale(0.015625)"/>
       <path d="M 1172 4494 
L 1172 3500 
L 2356 3500 
L 2356 3053 
L 1172 3053 
L 1172 1153 
Q 1172 725 1289 603 
Q 1406 481 1766 481 
L 2356 481 
L 2356 0 
L 1766 0 
Q 1100 0 847 248 
Q 594 497 594 1153 
L 594 3053 
L 172 3053 
L 172 3500 
L 594 3500 
L 594 4494 
L 1172 4494 
z
" id="DejaVuSans-74" transform="scale(0.015625)"/>
       <path d="M 3513 2113 
L 3513 0 
L 2938 0 
L 2938 2094 
Q 2938 2591 2744 2837 
Q 2550 3084 2163 3084 
Q 1697 3084 1428 2787 
Q 1159 2491 1159 1978 
L 1159 0 
L 581 0 
L 581 3500 
L 1159 3500 
L 1159 2956 
Q 1366 3272 1645 3428 
Q 1925 3584 2291 3584 
Q 2894 3584 3203 3211 
Q 3513 2838 3513 2113 
z
" id="DejaVuSans-6e" transform="scale(0.015625)"/>
       <path d="M 1984 4856 
Q 1566 4138 1362 3434 
Q 1159 2731 1159 2009 
Q 1159 1288 1364 580 
Q 1569 -128 1984 -844 
L 1484 -844 
Q 1016 -109 783 600 
Q 550 1309 550 2009 
Q 550 2706 781 3412 
Q 1013 4119 1484 4856 
L 1984 4856 
z
" id="DejaVuSans-28" transform="scale(0.015625)"/>
       <path d="M -84 -1331 
L 856 3500 
L 1434 3500 
L 1009 1322 
Q 997 1256 987 1175 
Q 978 1094 978 1013 
Q 978 722 1161 565 
Q 1344 409 1684 409 
Q 2147 409 2431 671 
Q 2716 934 2816 1459 
L 3213 3500 
L 3788 3500 
L 3266 809 
Q 3253 750 3248 706 
Q 3244 663 3244 628 
Q 3244 531 3283 486 
Q 3322 441 3406 441 
Q 3438 441 3492 456 
Q 3547 472 3647 513 
L 3559 50 
Q 3422 -19 3297 -55 
Q 3172 -91 3053 -91 
Q 2847 -91 2730 40 
Q 2613 172 2613 403 
Q 2438 153 2195 31 
Q 1953 -91 1625 -91 
Q 1334 -91 1117 43 
Q 900 178 831 397 
L 494 -1331 
L -84 -1331 
z
" id="DejaVuSans-Oblique-3bc" transform="scale(0.015625)"/>
       <path d="M 3328 2828 
Q 3544 3216 3844 3400 
Q 4144 3584 4550 3584 
Q 5097 3584 5394 3201 
Q 5691 2819 5691 2113 
L 5691 0 
L 5113 0 
L 5113 2094 
Q 5113 2597 4934 2840 
Q 4756 3084 4391 3084 
Q 3944 3084 3684 2787 
Q 3425 2491 3425 1978 
L 3425 0 
L 2847 0 
L 2847 2094 
Q 2847 2600 2669 2842 
Q 2491 3084 2119 3084 
Q 1678 3084 1418 2786 
Q 1159 2488 1159 1978 
L 1159 0 
L 581 0 
L 581 3500 
L 1159 3500 
L 1159 2956 
Q 1356 3278 1631 3431 
Q 1906 3584 2284 3584 
Q 2666 3584 2933 3390 
Q 3200 3197 3328 2828 
z
" id="DejaVuSans-6d" transform="scale(0.015625)"/>
       <path d="M 513 4856 
L 1013 4856 
Q 1481 4119 1714 3412 
Q 1947 2706 1947 2009 
Q 1947 1309 1714 600 
Q 1481 -109 1013 -844 
L 513 -844 
Q 928 -128 1133 580 
Q 1338 1288 1338 2009 
Q 1338 2731 1133 3434 
Q 928 4138 513 4856 
z
" id="DejaVuSans-29" transform="scale(0.015625)"/>
      </defs>
      <use transform="translate(0 0.015625)" xlink:href="#DejaVuSans-54"/>
      <use transform="translate(61.083984 0.015625)" xlink:href="#DejaVuSans-72"/>
      <use transform="translate(102.197266 0.015625)" xlink:href="#DejaVuSans-61"/>
      <use transform="translate(163.476562 0.015625)" xlink:href="#DejaVuSans-70"/>
      <use transform="translate(226.953125 0.015625)" xlink:href="#DejaVuSans-20"/>
      <use transform="translate(258.740234 0.015625)" xlink:href="#DejaVuSans-50"/>
      <use transform="translate(319.042969 0.015625)" xlink:href="#DejaVuSans-6f"/>
      <use transform="translate(380.224609 0.015625)" xlink:href="#DejaVuSans-73"/>
      <use transform="translate(432.324219 0.015625)" xlink:href="#DejaVuSans-69"/>
      <use transform="translate(460.107422 0.015625)" xlink:href="#DejaVuSans-74"/>
      <use transform="translate(499.316406 0.015625)" xlink:href="#DejaVuSans-69"/>
      <use transform="translate(527.099609 0.015625)" xlink:href="#DejaVuSans-6f"/>
      <use transform="translate(588.28125 0.015625)" xlink:href="#DejaVuSans-6e"/>
      <use transform="translate(651.660156 0.015625)" xlink:href="#DejaVuSans-20"/>
      <use transform="translate(683.447266 0.015625)" xlink:href="#DejaVuSans-28"/>
      <use transform="translate(722.460938 0.015625)" xlink:href="#DejaVuSans-Oblique-3bc"/>
      <use transform="translate(786.083984 0.015625)" xlink:href="#DejaVuSans-6d"/>
      <use transform="translate(883.496094 0.015625)" xlink:href="#DejaVuSans-29"/>
     </g>
    </g>
   </g>
   <g id="matplotlib.axis_2">
    <g id="ytick_1">
     <g id="line2d_8">
      <defs>
       <path d="M 0 0 
L -3.5 0 
" id="m1c28da4a85" style="stroke:#000000;stroke-width:0.8;"/>
      </defs>
      <g>
       <use style="stroke:#000000;stroke-width:0.8;" x="63.175" xlink:href="#m1c28da4a85" y="233.2"/>
      </g>
     </g>
     <g id="text_9">
      <!-- 0.00 -->
      <g transform="translate(33.909375 236.999219)scale(0.1 -0.1)">
       <use xlink:href="#DejaVuSans-30"/>
       <use x="63.623047" xlink:href="#DejaVuSans-2e"/>
       <use x="95.410156" xlink:href="#DejaVuSans-30"/>
       <use x="159.033203" xlink:href="#DejaVuSans-30"/>
      </g>
     </g>
    </g>
    <g id="ytick_2">
     <g id="line2d_9">
      <g>
       <use style="stroke:#000000;stroke-width:0.8;" x="63.175" xlink:href="#m1c28da4a85" y="206.161418"/>
      </g>
     </g>
     <g id="text_10">
      <!-- 0.25 -->
      <g transform="translate(33.909375 209.960637)scale(0.1 -0.1)">
       <use xlink:href="#DejaVuSans-30"/>
       <use x="63.623047" xlink:href="#DejaVuSans-2e"/>
       <use x="95.410156" xlink:href="#DejaVuSans-32"/>
       <use x="159.033203" xlink:href="#DejaVuSans-35"/>
      </g>
     </g>
    </g>
    <g id="ytick_3">
     <g id="line2d_10">
      <g>
       <use style="stroke:#000000;stroke-width:0.8;" x="63.175" xlink:href="#m1c28da4a85" y="179.122836"/>
      </g>
     </g>
     <g id="text_11">
      <!-- 0.50 -->
      <g transform="translate(33.909375 182.922055)scale(0.1 -0.1)">
       <use xlink:href="#DejaVuSans-30"/>
       <use x="63.623047" xlink:href="#DejaVuSans-2e"/>
       <use x="95.410156" xlink:href="#DejaVuSans-35"/>
       <use x="159.033203" xlink:href="#DejaVuSans-30"/>
      </g>
     </g>
    </g>
    <g id="ytick_4">
     <g id="line2d_11">
      <g>
       <use style="stroke:#000000;stroke-width:0.8;" x="63.175" xlink:href="#m1c28da4a85" y="152.084254"/>
      </g>
     </g>
     <g id="text_12">
      <!-- 0.75 -->
      <g transform="translate(33.909375 155.883473)scale(0.1 -0.1)">
       <use xlink:href="#DejaVuSans-30"/>
       <use x="63.623047" xlink:href="#DejaVuSans-2e"/>
       <use x="95.410156" xlink:href="#DejaVuSans-37"/>
       <use x="159.033203" xlink:href="#DejaVuSans-35"/>
      </g>
     </g>
    </g>
    <g id="ytick_5">
     <g id="line2d_12">
      <g>
       <use style="stroke:#000000;stroke-width:0.8;" x="63.175" xlink:href="#m1c28da4a85" y="125.045672"/>
      </g>
     </g>
     <g id="text_13">
      <!-- 1.00 -->
      <g transform="translate(33.909375 128.844891)scale(0.1 -0.1)">
       <defs>
        <path d="M 794 531 
L 1825 531 
L 1825 4091 
L 703 3866 
L 703 4441 
L 1819 4666 
L 2450 4666 
L 2450 531 
L 3481 531 
L 3481 0 
L 794 0 
L 794 531 
z
" id="DejaVuSans-31" transform="scale(0.015625)"/>
       </defs>
       <use xlink:href="#DejaVuSans-31"/>
       <use x="63.623047" xlink:href="#DejaVuSans-2e"/>
       <use x="95.410156" xlink:href="#DejaVuSans-30"/>
       <use x="159.033203" xlink:href="#DejaVuSans-30"/>
      </g>
     </g>
    </g>
    <g id="ytick_6">
     <g id="line2d_13">
      <g>
       <use style="stroke:#000000;stroke-width:0.8;" x="63.175" xlink:href="#m1c28da4a85" y="98.00709"/>
      </g>
     </g>
     <g id="text_14">
      <!-- 1.25 -->
      <g transform="translate(33.909375 101.806309)scale(0.1 -0.1)">
       <use xlink:href="#DejaVuSans-31"/>
       <use x="63.623047" xlink:href="#DejaVuSans-2e"/>
       <use x="95.410156" xlink:href="#DejaVuSans-32"/>
       <use x="159.033203" xlink:href="#DejaVuSans-35"/>
      </g>
     </g>
    </g>
    <g id="ytick_7">
     <g id="line2d_14">
      <g>
       <use style="stroke:#000000;stroke-width:0.8;" x="63.175" xlink:href="#m1c28da4a85" y="70.968508"/>
      </g>
     </g>
     <g id="text_15">
      <!-- 1.50 -->
      <g transform="translate(33.909375 74.767727)scale(0.1 -0.1)">
       <use xlink:href="#DejaVuSans-31"/>
       <use x="63.623047" xlink:href="#DejaVuSans-2e"/>
       <use x="95.410156" xlink:href="#DejaVuSans-35"/>
       <use x="159.033203" xlink:href="#DejaVuSans-30"/>
      </g>
     </g>
    </g>
    <g id="ytick_8">
     <g id="line2d_15">
      <g>
       <use style="stroke:#000000;stroke-width:0.8;" x="63.175" xlink:href="#m1c28da4a85" y="43.929926"/>
      </g>
     </g>
     <g id="text_16">
      <!-- 1.75 -->
      <g transform="translate(33.909375 47.729145)scale(0.1 -0.1)">
       <use xlink:href="#DejaVuSans-31"/>
       <use x="63.623047" xlink:href="#DejaVuSans-2e"/>
       <use x="95.410156" xlink:href="#DejaVuSans-37"/>
       <use x="159.033203" xlink:href="#DejaVuSans-35"/>
      </g>
     </g>
    </g>
    <g id="ytick_9">
     <g id="line2d_16">
      <g>
       <use style="stroke:#000000;stroke-width:0.8;" x="63.175" xlink:href="#m1c28da4a85" y="16.891344"/>
      </g>
     </g>
     <g id="text_17">
      <!-- 2.00 -->
      <g transform="translate(33.909375 20.690563)scale(0.1 -0.1)">
       <use xlink:href="#DejaVuSans-32"/>
       <use x="63.623047" xlink:href="#DejaVuSans-2e"/>
       <use x="95.410156" xlink:href="#DejaVuSans-30"/>
       <use x="159.033203" xlink:href="#DejaVuSans-30"/>
      </g>
     </g>
    </g>
    <g id="text_18">
     <!-- Stark Shift (kHz) -->
     <g transform="translate(25.75 203.746875)rotate(-90)scale(0.2 -0.2)">
      <defs>
       <path d="M 3425 4513 
L 3425 3897 
Q 3066 4069 2747 4153 
Q 2428 4238 2131 4238 
Q 1616 4238 1336 4038 
Q 1056 3838 1056 3469 
Q 1056 3159 1242 3001 
Q 1428 2844 1947 2747 
L 2328 2669 
Q 3034 2534 3370 2195 
Q 3706 1856 3706 1288 
Q 3706 609 3251 259 
Q 2797 -91 1919 -91 
Q 1588 -91 1214 -16 
Q 841 59 441 206 
L 441 856 
Q 825 641 1194 531 
Q 1563 422 1919 422 
Q 2459 422 2753 634 
Q 3047 847 3047 1241 
Q 3047 1584 2836 1778 
Q 2625 1972 2144 2069 
L 1759 2144 
Q 1053 2284 737 2584 
Q 422 2884 422 3419 
Q 422 4038 858 4394 
Q 1294 4750 2059 4750 
Q 2388 4750 2728 4690 
Q 3069 4631 3425 4513 
z
" id="DejaVuSans-53" transform="scale(0.015625)"/>
       <path d="M 581 4863 
L 1159 4863 
L 1159 1991 
L 2875 3500 
L 3609 3500 
L 1753 1863 
L 3688 0 
L 2938 0 
L 1159 1709 
L 1159 0 
L 581 0 
L 581 4863 
z
" id="DejaVuSans-6b" transform="scale(0.015625)"/>
       <path d="M 3513 2113 
L 3513 0 
L 2938 0 
L 2938 2094 
Q 2938 2591 2744 2837 
Q 2550 3084 2163 3084 
Q 1697 3084 1428 2787 
Q 1159 2491 1159 1978 
L 1159 0 
L 581 0 
L 581 4863 
L 1159 4863 
L 1159 2956 
Q 1366 3272 1645 3428 
Q 1925 3584 2291 3584 
Q 2894 3584 3203 3211 
Q 3513 2838 3513 2113 
z
" id="DejaVuSans-68" transform="scale(0.015625)"/>
       <path d="M 2375 4863 
L 2375 4384 
L 1825 4384 
Q 1516 4384 1395 4259 
Q 1275 4134 1275 3809 
L 1275 3500 
L 2222 3500 
L 2222 3053 
L 1275 3053 
L 1275 0 
L 697 0 
L 697 3053 
L 147 3053 
L 147 3500 
L 697 3500 
L 697 3744 
Q 697 4328 969 4595 
Q 1241 4863 1831 4863 
L 2375 4863 
z
" id="DejaVuSans-66" transform="scale(0.015625)"/>
       <path d="M 628 4666 
L 1259 4666 
L 1259 2753 
L 3553 2753 
L 3553 4666 
L 4184 4666 
L 4184 0 
L 3553 0 
L 3553 2222 
L 1259 2222 
L 1259 0 
L 628 0 
L 628 4666 
z
" id="DejaVuSans-48" transform="scale(0.015625)"/>
       <path d="M 353 3500 
L 3084 3500 
L 3084 2975 
L 922 459 
L 3084 459 
L 3084 0 
L 275 0 
L 275 525 
L 2438 3041 
L 353 3041 
L 353 3500 
z
" id="DejaVuSans-7a" transform="scale(0.015625)"/>
      </defs>
      <use xlink:href="#DejaVuSans-53"/>
      <use x="63.476562" xlink:href="#DejaVuSans-74"/>
      <use x="102.685547" xlink:href="#DejaVuSans-61"/>
      <use x="163.964844" xlink:href="#DejaVuSans-72"/>
      <use x="205.078125" xlink:href="#DejaVuSans-6b"/>
      <use x="262.988281" xlink:href="#DejaVuSans-20"/>
      <use x="294.775391" xlink:href="#DejaVuSans-53"/>
      <use x="358.251953" xlink:href="#DejaVuSans-68"/>
      <use x="421.630859" xlink:href="#DejaVuSans-69"/>
      <use x="449.414062" xlink:href="#DejaVuSans-66"/>
      <use x="482.869141" xlink:href="#DejaVuSans-74"/>
      <use x="522.078125" xlink:href="#DejaVuSans-20"/>
      <use x="553.865234" xlink:href="#DejaVuSans-28"/>
      <use x="592.878906" xlink:href="#DejaVuSans-6b"/>
      <use x="650.789062" xlink:href="#DejaVuSans-48"/>
      <use x="725.984375" xlink:href="#DejaVuSans-7a"/>
      <use x="778.474609" xlink:href="#DejaVuSans-29"/>
     </g>
    </g>
   </g>
   <g id="line2d_17">
    <path clip-path="url(#p781da11d79)" d="M 146.45889 233.2 
L 145.782021 233.2 
L 145.105152 233.2 
L 144.428284 233.2 
L 143.751415 233.2 
L 143.074546 233.2 
L 142.397677 233.2 
L 141.720808 233.2 
L 141.043939 233.2 
L 140.36707 233.2 
L 139.690201 233.2 
L 139.013332 233.2 
L 138.336463 233.2 
L 137.659594 233.2 
L 136.982725 233.2 
L 136.305856 233.2 
L 135.628987 233.2 
L 134.952118 233.2 
L 134.275249 233.2 
L 133.59838 233.2 
L 132.921511 233.2 
L 132.244642 233.2 
L 131.567773 233.2 
L 130.890904 233.2 
L 130.214035 233.2 
L 129.537166 233.2 
L 128.860297 233.2 
L 128.183429 233.199999 
L 127.50656 233.199997 
L 126.829691 233.199994 
L 126.152822 233.199987 
L 125.475953 233.19997 
L 124.799084 233.199934 
L 124.122215 233.199859 
L 123.445346 233.199703 
L 122.768477 233.199387 
L 122.091608 233.198761 
L 121.414739 233.197543 
L 120.73787 233.195226 
L 120.061001 233.190909 
L 119.384132 233.183028 
L 118.707263 233.168945 
L 118.030394 233.144299 
L 117.353525 233.102073 
L 116.676656 233.031244 
L 115.999787 232.914943 
L 115.322918 232.728026 
L 114.646049 232.434018 
L 113.96918 231.981474 
L 113.292311 231.299945 
L 112.615443 230.295895 
L 111.938574 228.849157 
L 111.261705 226.810755 
L 110.584836 224.003117 
L 109.907967 220.223822 
L 109.231098 215.253989 
L 108.554229 208.872132 
L 107.87736 200.873762 
L 107.200491 191.096201 
L 106.523622 179.447039 
L 105.846753 165.933551 
L 105.169884 150.689426 
L 104.493015 133.994509 
L 103.816146 116.283229 
L 103.139277 98.138084 
L 102.462408 80.266017 
L 101.785539 63.457698 
L 101.10867 48.5322 
L 100.431801 36.272097 
L 99.754932 27.355941 
L 99.078063 22.296197 
L 98.401194 21.390476 
L 97.724325 24.692562 
L 97.047457 32.007115 
L 96.370588 42.908811 
L 95.693719 56.783282 
L 95.01685 72.884397 
L 94.339981 90.400448 
L 93.663112 108.52112 
L 92.986243 126.497661 
L 92.309374 143.690325 
L 91.632505 159.599457 
L 90.955636 173.879193 
L 90.278767 186.335058 
L 89.601898 196.908567 
L 88.925029 205.652948 
L 88.24816 212.704375 
L 87.571291 218.25272 
L 86.894422 222.51491 
L 86.217553 225.712976 
L 85.540684 228.057726 
L 84.863815 229.738087 
L 84.186946 230.915494 
L 83.510077 231.72231 
L 82.833208 232.263109 
L 82.156339 232.617749 
L 81.479471 232.845312 
L 80.802602 232.988214 
L 80.125733 233.076045 
L 79.448864 233.128888 
" style="fill:none;stroke:#00ff00;stroke-linecap:square;stroke-width:3;"/>
   </g>
   <g id="line2d_18">
    <path clip-path="url(#p781da11d79)" d="M 242.1875 233.2 
L 241.220544 233.2 
L 240.253589 233.2 
L 239.286633 233.2 
L 238.319677 233.2 
L 237.352722 233.2 
L 236.385766 233.2 
L 235.41881 233.2 
L 234.451855 233.2 
L 233.484899 233.2 
L 232.517943 233.2 
L 231.550988 233.2 
L 230.584032 233.2 
L 229.617077 233.2 
L 228.650121 233.2 
L 227.683165 233.2 
L 226.71621 233.2 
L 225.749254 233.2 
L 224.782298 233.2 
L 223.815343 233.199999 
L 222.848387 233.199997 
L 221.881431 233.19999 
L 220.914476 233.199969 
L 219.94752 233.199907 
L 218.980564 233.199731 
L 218.013609 233.199254 
L 217.046653 233.198013 
L 216.079697 233.19492 
L 215.112742 233.187531 
L 214.145786 233.17062 
L 213.17883 233.133544 
L 212.211875 233.055688 
L 211.244919 232.899155 
L 210.277963 232.597913 
L 209.311008 232.043219 
L 208.344052 231.066372 
L 207.377096 229.422003 
L 206.410141 226.777855 
L 205.443185 222.719692 
L 204.47623 216.781121 
L 203.509274 208.506169 
L 202.542318 197.545943 
L 201.575363 183.779752 
L 200.608407 167.43779 
L 199.641451 149.191471 
L 198.674496 130.174231 
L 197.70754 111.904734 
L 196.740584 96.106349 
L 195.773629 84.446794 
L 194.806673 78.250267 
L 193.839717 78.250267 
L 192.872762 84.446794 
L 191.905806 96.106349 
L 190.93885 111.904734 
L 189.971895 130.174231 
L 189.004939 149.191471 
L 188.037983 167.43779 
L 187.071028 183.779752 
L 186.104072 197.545943 
L 185.137116 208.506169 
L 184.170161 216.781121 
L 183.203205 222.719692 
L 182.23625 226.777855 
L 181.269294 229.422003 
L 180.302338 231.066372 
L 179.335383 232.043219 
L 178.368427 232.597913 
L 177.401471 232.899155 
L 176.434516 233.055688 
L 175.46756 233.133544 
L 174.500604 233.17062 
L 173.533649 233.187531 
L 172.566693 233.19492 
L 171.599737 233.198013 
L 170.632782 233.199254 
L 169.665826 233.199731 
L 168.69887 233.199907 
L 167.731915 233.199969 
L 166.764959 233.19999 
L 165.798003 233.199997 
L 164.831048 233.199999 
L 163.864092 233.2 
L 162.897136 233.2 
L 161.930181 233.2 
L 160.963225 233.2 
L 159.99627 233.2 
L 159.029314 233.2 
L 158.062358 233.2 
L 157.095403 233.2 
L 156.128447 233.2 
L 155.161491 233.2 
L 154.194536 233.2 
L 153.22758 233.2 
L 152.260624 233.2 
L 151.293669 233.2 
L 150.326713 233.2 
L 149.359757 233.2 
L 148.392802 233.2 
L 147.425846 233.2 
L 146.45889 233.2 
" style="fill:none;stroke:#00bfff;stroke-linecap:square;stroke-width:3;"/>
   </g>
   <g id="line2d_19">
    <path clip-path="url(#p781da11d79)" d="M 242.1875 233.2 
L 243.154456 233.2 
L 244.121411 233.2 
L 245.088367 233.2 
L 246.055323 233.2 
L 247.022278 233.2 
L 247.989234 233.2 
L 248.95619 233.2 
L 249.923145 233.2 
L 250.890101 233.2 
L 251.857057 233.2 
L 252.824012 233.2 
L 253.790968 233.2 
L 254.757923 233.2 
L 255.724879 233.2 
L 256.691835 233.2 
L 257.65879 233.2 
L 258.625746 233.2 
L 259.592702 233.2 
L 260.559657 233.199999 
L 261.526613 233.199998 
L 262.493569 233.199993 
L 263.460524 233.199979 
L 264.42748 233.199935 
L 265.394436 233.199813 
L 266.361391 233.199482 
L 267.328347 233.19862 
L 268.295303 233.196472 
L 269.262258 233.191341 
L 270.229214 233.179597 
L 271.19617 233.15385 
L 272.163125 233.099783 
L 273.130081 232.99108 
L 274.097037 232.781884 
L 275.063992 232.39668 
L 276.030948 231.718314 
L 276.997904 230.576391 
L 277.964859 228.740177 
L 278.931815 225.922008 
L 279.89877 221.798 
L 280.865726 216.051506 
L 281.832682 208.440239 
L 282.799637 198.880383 
L 283.766593 187.531799 
L 284.733549 174.860744 
L 285.700504 161.654327 
L 286.66746 148.967176 
L 287.634416 137.996076 
L 288.601371 129.899162 
L 289.568327 125.596019 
L 290.535283 125.596019 
L 291.502238 129.899162 
L 292.469194 137.996076 
L 293.43615 148.967176 
L 294.403105 161.654327 
L 295.370061 174.860744 
L 296.337017 187.531799 
L 297.303972 198.880383 
L 298.270928 208.440239 
L 299.237884 216.051506 
L 300.204839 221.798 
L 301.171795 225.922008 
L 302.13875 228.740177 
L 303.105706 230.576391 
L 304.072662 231.718314 
L 305.039617 232.39668 
L 306.006573 232.781884 
L 306.973529 232.99108 
L 307.940484 233.099783 
L 308.90744 233.15385 
L 309.874396 233.179597 
L 310.841351 233.191341 
L 311.808307 233.196472 
L 312.775263 233.19862 
L 313.742218 233.199482 
L 314.709174 233.199813 
L 315.67613 233.199935 
L 316.643085 233.199979 
L 317.610041 233.199993 
L 318.576997 233.199998 
L 319.543952 233.199999 
L 320.510908 233.2 
L 321.477864 233.2 
L 322.444819 233.2 
L 323.411775 233.2 
L 324.37873 233.2 
L 325.345686 233.2 
L 326.312642 233.2 
L 327.279597 233.2 
L 328.246553 233.2 
L 329.213509 233.2 
L 330.180464 233.2 
L 331.14742 233.2 
L 332.114376 233.2 
L 333.081331 233.2 
L 334.048287 233.2 
L 335.015243 233.2 
L 335.982198 233.2 
L 336.949154 233.2 
L 337.91611 233.2 
" style="fill:none;stroke:#ff00ff;stroke-linecap:square;stroke-width:3;"/>
   </g>
   <g id="line2d_20">
    <path clip-path="url(#p781da11d79)" d="M 337.91611 233.2 
L 338.592979 233.2 
L 339.269848 233.2 
L 339.946716 233.2 
L 340.623585 233.2 
L 341.300454 233.2 
L 341.977323 233.2 
L 342.654192 233.2 
L 343.331061 233.2 
L 344.00793 233.2 
L 344.684799 233.2 
L 345.361668 233.2 
L 346.038537 233.2 
L 346.715406 233.2 
L 347.392275 233.2 
L 348.069144 233.2 
L 348.746013 233.2 
L 349.422882 233.2 
L 350.099751 233.2 
L 350.77662 233.2 
L 351.453489 233.2 
L 352.130358 233.2 
L 352.807227 233.2 
L 353.484096 233.2 
L 354.160965 233.2 
L 354.837834 233.2 
L 355.514703 233.2 
L 356.191571 233.199999 
L 356.86844 233.199999 
L 357.545309 233.199997 
L 358.222178 233.199993 
L 358.899047 233.199985 
L 359.575916 233.199966 
L 360.252785 233.199928 
L 360.929654 233.199848 
L 361.606523 233.199687 
L 362.283392 233.199368 
L 362.960261 233.198746 
L 363.63713 233.197564 
L 364.313999 233.195362 
L 364.990868 233.191341 
L 365.667737 233.184155 
L 366.344606 233.171581 
L 367.021475 233.150037 
L 367.698344 233.1139 
L 368.375213 233.054563 
L 369.052082 232.959197 
L 369.728951 232.809193 
L 370.40582 232.578303 
L 371.082689 232.230584 
L 371.759557 231.718314 
L 372.436426 230.980182 
L 373.113295 229.940181 
L 373.790164 228.507713 
L 374.467033 226.579501 
L 375.143902 224.043872 
L 375.820771 220.787823 
L 376.49764 216.707022 
L 377.174509 211.71847 
L 377.851378 205.77502 
L 378.528247 198.880383 
L 379.205116 191.102768 
L 379.881985 182.584954 
L 380.558854 173.548586 
L 381.235723 164.290859 
L 381.912592 155.172458 
L 382.589461 146.596784 
L 383.26633 138.981735 
L 383.943199 132.72658 
L 384.620068 128.177521 
L 385.296937 125.596019 
L 385.973806 125.133916 
L 386.650675 126.818654 
L 387.327543 130.550569 
L 388.004412 136.112659 
L 388.681281 143.19147 
L 389.35815 151.406325 
L 390.035019 160.343086 
L 390.711888 169.588326 
L 391.388757 178.760031 
L 392.065626 187.531799 
L 392.742495 195.648703 
L 393.419364 202.934282 
L 394.096233 209.289315 
L 394.773102 214.683963 
L 395.449971 219.145381 
L 396.12684 222.743049 
L 396.803709 225.573837 
L 397.480578 227.748423 
L 398.157447 229.38009 
L 398.834316 230.576391 
L 399.511185 231.433718 
L 400.188054 232.034436 
L 400.864923 232.446077 
L 401.541792 232.721994 
L 402.218661 232.902933 
L 402.895529 233.019037 
L 403.572398 233.091946 
L 404.249267 233.136758 
L 404.926136 233.163718 
" style="fill:none;stroke:#ff0000;stroke-linecap:square;stroke-width:3;"/>
   </g>
   <g id="patch_3">
    <path d="M 63.175 233.2 
L 63.175 10.8 
" style="fill:none;stroke:#000000;stroke-linecap:square;stroke-linejoin:miter;stroke-width:0.8;"/>
   </g>
   <g id="patch_4">
    <path d="M 421.2 233.2 
L 421.2 10.8 
" style="fill:none;stroke:#000000;stroke-linecap:square;stroke-linejoin:miter;stroke-width:0.8;"/>
   </g>
   <g id="patch_5">
    <path d="M 63.175 233.2 
L 421.2 233.2 
" style="fill:none;stroke:#000000;stroke-linecap:square;stroke-linejoin:miter;stroke-width:0.8;"/>
   </g>
   <g id="patch_6">
    <path d="M 63.175 10.8 
L 421.2 10.8 
" style="fill:none;stroke:#000000;stroke-linecap:square;stroke-linejoin:miter;stroke-width:0.8;"/>
   </g>
   <g id="legend_1">
    <g id="patch_7">
     <path d="M 349.045312 77.5125 
L 414.2 77.5125 
Q 416.2 77.5125 416.2 75.5125 
L 416.2 17.8 
Q 416.2 15.8 414.2 15.8 
L 349.045312 15.8 
Q 347.045312 15.8 347.045312 17.8 
L 347.045312 75.5125 
Q 347.045312 77.5125 349.045312 77.5125 
z
" style="fill:#ffffff;opacity:0.8;stroke:#cccccc;stroke-linejoin:miter;"/>
    </g>
    <g id="line2d_21">
     <path d="M 351.045312 23.898438 
L 371.045312 23.898438 
" style="fill:none;stroke:#00ff00;stroke-linecap:square;stroke-width:3;"/>
    </g>
    <g id="line2d_22"/>
    <g id="text_19">
     <!-- ion #1 -->
     <g transform="translate(379.045312 27.398438)scale(0.1 -0.1)">
      <defs>
       <path d="M 3272 2816 
L 2363 2816 
L 2100 1772 
L 3016 1772 
L 3272 2816 
z
M 2803 4594 
L 2478 3297 
L 3391 3297 
L 3719 4594 
L 4219 4594 
L 3897 3297 
L 4872 3297 
L 4872 2816 
L 3775 2816 
L 3519 1772 
L 4513 1772 
L 4513 1294 
L 3397 1294 
L 3072 0 
L 2572 0 
L 2894 1294 
L 1978 1294 
L 1656 0 
L 1153 0 
L 1478 1294 
L 494 1294 
L 494 1772 
L 1594 1772 
L 1856 2816 
L 850 2816 
L 850 3297 
L 1978 3297 
L 2297 4594 
L 2803 4594 
z
" id="DejaVuSans-23" transform="scale(0.015625)"/>
      </defs>
      <use xlink:href="#DejaVuSans-69"/>
      <use x="27.783203" xlink:href="#DejaVuSans-6f"/>
      <use x="88.964844" xlink:href="#DejaVuSans-6e"/>
      <use x="152.34375" xlink:href="#DejaVuSans-20"/>
      <use x="184.130859" xlink:href="#DejaVuSans-23"/>
      <use x="267.919922" xlink:href="#DejaVuSans-31"/>
     </g>
    </g>
    <g id="line2d_23">
     <path d="M 351.045312 38.576563 
L 371.045312 38.576563 
" style="fill:none;stroke:#00bfff;stroke-linecap:square;stroke-width:3;"/>
    </g>
    <g id="line2d_24"/>
    <g id="text_20">
     <!-- ion #2 -->
     <g transform="translate(379.045312 42.076563)scale(0.1 -0.1)">
      <use xlink:href="#DejaVuSans-69"/>
      <use x="27.783203" xlink:href="#DejaVuSans-6f"/>
      <use x="88.964844" xlink:href="#DejaVuSans-6e"/>
      <use x="152.34375" xlink:href="#DejaVuSans-20"/>
      <use x="184.130859" xlink:href="#DejaVuSans-23"/>
      <use x="267.919922" xlink:href="#DejaVuSans-32"/>
     </g>
    </g>
    <g id="line2d_25">
     <path d="M 351.045312 53.254688 
L 371.045312 53.254688 
" style="fill:none;stroke:#ff00ff;stroke-linecap:square;stroke-width:3;"/>
    </g>
    <g id="line2d_26"/>
    <g id="text_21">
     <!-- ion #3 -->
     <g transform="translate(379.045312 56.754688)scale(0.1 -0.1)">
      <defs>
       <path d="M 2597 2516 
Q 3050 2419 3304 2112 
Q 3559 1806 3559 1356 
Q 3559 666 3084 287 
Q 2609 -91 1734 -91 
Q 1441 -91 1130 -33 
Q 819 25 488 141 
L 488 750 
Q 750 597 1062 519 
Q 1375 441 1716 441 
Q 2309 441 2620 675 
Q 2931 909 2931 1356 
Q 2931 1769 2642 2001 
Q 2353 2234 1838 2234 
L 1294 2234 
L 1294 2753 
L 1863 2753 
Q 2328 2753 2575 2939 
Q 2822 3125 2822 3475 
Q 2822 3834 2567 4026 
Q 2313 4219 1838 4219 
Q 1578 4219 1281 4162 
Q 984 4106 628 3988 
L 628 4550 
Q 988 4650 1302 4700 
Q 1616 4750 1894 4750 
Q 2613 4750 3031 4423 
Q 3450 4097 3450 3541 
Q 3450 3153 3228 2886 
Q 3006 2619 2597 2516 
z
" id="DejaVuSans-33" transform="scale(0.015625)"/>
      </defs>
      <use xlink:href="#DejaVuSans-69"/>
      <use x="27.783203" xlink:href="#DejaVuSans-6f"/>
      <use x="88.964844" xlink:href="#DejaVuSans-6e"/>
      <use x="152.34375" xlink:href="#DejaVuSans-20"/>
      <use x="184.130859" xlink:href="#DejaVuSans-23"/>
      <use x="267.919922" xlink:href="#DejaVuSans-33"/>
     </g>
    </g>
    <g id="line2d_27">
     <path d="M 351.045312 67.932813 
L 371.045312 67.932813 
" style="fill:none;stroke:#ff0000;stroke-linecap:square;stroke-width:3;"/>
    </g>
    <g id="line2d_28"/>
    <g id="text_22">
     <!-- ion #4 -->
     <g transform="translate(379.045312 71.432813)scale(0.1 -0.1)">
      <defs>
       <path d="M 2419 4116 
L 825 1625 
L 2419 1625 
L 2419 4116 
z
M 2253 4666 
L 3047 4666 
L 3047 1625 
L 3713 1625 
L 3713 1100 
L 3047 1100 
L 3047 0 
L 2419 0 
L 2419 1100 
L 313 1100 
L 313 1709 
L 2253 4666 
z
" id="DejaVuSans-34" transform="scale(0.015625)"/>
      </defs>
      <use xlink:href="#DejaVuSans-69"/>
      <use x="27.783203" xlink:href="#DejaVuSans-6f"/>
      <use x="88.964844" xlink:href="#DejaVuSans-6e"/>
      <use x="152.34375" xlink:href="#DejaVuSans-20"/>
      <use x="184.130859" xlink:href="#DejaVuSans-23"/>
      <use x="267.919922" xlink:href="#DejaVuSans-34"/>
     </g>
    </g>
   </g>
  </g>
 </g>
 <defs>
  <clipPath id="p781da11d79">
   <rect height="222.4" width="358.025" x="63.175" y="10.8"/>
  </clipPath>
 </defs>
</svg>
